%TF.GenerationSoftware,KiCad,Pcbnew,9.0.0*%
%TF.CreationDate,2025-06-25T22:47:07+09:00*%
%TF.ProjectId,_____,abe1e9bb-772e-46b6-9963-61645f706362,rev?*%
%TF.SameCoordinates,Original*%
%TF.FileFunction,Legend,Top*%
%TF.FilePolarity,Positive*%
%FSLAX46Y46*%
G04 Gerber Fmt 4.6, Leading zero omitted, Abs format (unit mm)*
G04 Created by KiCad (PCBNEW 9.0.0) date 2025-06-25 22:47:07*
%MOMM*%
%LPD*%
G01*
G04 APERTURE LIST*
%ADD10C,0.150000*%
%ADD11C,0.120000*%
G04 APERTURE END LIST*
D10*
X168666666Y-31254819D02*
X168333333Y-30778628D01*
X168095238Y-31254819D02*
X168095238Y-30254819D01*
X168095238Y-30254819D02*
X168476190Y-30254819D01*
X168476190Y-30254819D02*
X168571428Y-30302438D01*
X168571428Y-30302438D02*
X168619047Y-30350057D01*
X168619047Y-30350057D02*
X168666666Y-30445295D01*
X168666666Y-30445295D02*
X168666666Y-30588152D01*
X168666666Y-30588152D02*
X168619047Y-30683390D01*
X168619047Y-30683390D02*
X168571428Y-30731009D01*
X168571428Y-30731009D02*
X168476190Y-30778628D01*
X168476190Y-30778628D02*
X168095238Y-30778628D01*
X169095238Y-30731009D02*
X169428571Y-30731009D01*
X169571428Y-31254819D02*
X169095238Y-31254819D01*
X169095238Y-31254819D02*
X169095238Y-30254819D01*
X169095238Y-30254819D02*
X169571428Y-30254819D01*
X170333333Y-30731009D02*
X170000000Y-30731009D01*
X170000000Y-31254819D02*
X170000000Y-30254819D01*
X170000000Y-30254819D02*
X170476190Y-30254819D01*
X171000000Y-30254819D02*
X171000000Y-30492914D01*
X170761905Y-30397676D02*
X171000000Y-30492914D01*
X171000000Y-30492914D02*
X171238095Y-30397676D01*
X170857143Y-30683390D02*
X171000000Y-30492914D01*
X171000000Y-30492914D02*
X171142857Y-30683390D01*
X171761905Y-30254819D02*
X171761905Y-30492914D01*
X171523810Y-30397676D02*
X171761905Y-30492914D01*
X171761905Y-30492914D02*
X172000000Y-30397676D01*
X171619048Y-30683390D02*
X171761905Y-30492914D01*
X171761905Y-30492914D02*
X171904762Y-30683390D01*
X201166666Y-39964819D02*
X200833333Y-39488628D01*
X200595238Y-39964819D02*
X200595238Y-38964819D01*
X200595238Y-38964819D02*
X200976190Y-38964819D01*
X200976190Y-38964819D02*
X201071428Y-39012438D01*
X201071428Y-39012438D02*
X201119047Y-39060057D01*
X201119047Y-39060057D02*
X201166666Y-39155295D01*
X201166666Y-39155295D02*
X201166666Y-39298152D01*
X201166666Y-39298152D02*
X201119047Y-39393390D01*
X201119047Y-39393390D02*
X201071428Y-39441009D01*
X201071428Y-39441009D02*
X200976190Y-39488628D01*
X200976190Y-39488628D02*
X200595238Y-39488628D01*
X201595238Y-39441009D02*
X201928571Y-39441009D01*
X202071428Y-39964819D02*
X201595238Y-39964819D01*
X201595238Y-39964819D02*
X201595238Y-38964819D01*
X201595238Y-38964819D02*
X202071428Y-38964819D01*
X202833333Y-39441009D02*
X202500000Y-39441009D01*
X202500000Y-39964819D02*
X202500000Y-38964819D01*
X202500000Y-38964819D02*
X202976190Y-38964819D01*
X203500000Y-38964819D02*
X203500000Y-39202914D01*
X203261905Y-39107676D02*
X203500000Y-39202914D01*
X203500000Y-39202914D02*
X203738095Y-39107676D01*
X203357143Y-39393390D02*
X203500000Y-39202914D01*
X203500000Y-39202914D02*
X203642857Y-39393390D01*
X204261905Y-38964819D02*
X204261905Y-39202914D01*
X204023810Y-39107676D02*
X204261905Y-39202914D01*
X204261905Y-39202914D02*
X204500000Y-39107676D01*
X204119048Y-39393390D02*
X204261905Y-39202914D01*
X204261905Y-39202914D02*
X204404762Y-39393390D01*
X151846666Y-33474819D02*
X151513333Y-32998628D01*
X151275238Y-33474819D02*
X151275238Y-32474819D01*
X151275238Y-32474819D02*
X151656190Y-32474819D01*
X151656190Y-32474819D02*
X151751428Y-32522438D01*
X151751428Y-32522438D02*
X151799047Y-32570057D01*
X151799047Y-32570057D02*
X151846666Y-32665295D01*
X151846666Y-32665295D02*
X151846666Y-32808152D01*
X151846666Y-32808152D02*
X151799047Y-32903390D01*
X151799047Y-32903390D02*
X151751428Y-32951009D01*
X151751428Y-32951009D02*
X151656190Y-32998628D01*
X151656190Y-32998628D02*
X151275238Y-32998628D01*
X152275238Y-32951009D02*
X152608571Y-32951009D01*
X152751428Y-33474819D02*
X152275238Y-33474819D01*
X152275238Y-33474819D02*
X152275238Y-32474819D01*
X152275238Y-32474819D02*
X152751428Y-32474819D01*
X153513333Y-32951009D02*
X153180000Y-32951009D01*
X153180000Y-33474819D02*
X153180000Y-32474819D01*
X153180000Y-32474819D02*
X153656190Y-32474819D01*
X154180000Y-32474819D02*
X154180000Y-32712914D01*
X153941905Y-32617676D02*
X154180000Y-32712914D01*
X154180000Y-32712914D02*
X154418095Y-32617676D01*
X154037143Y-32903390D02*
X154180000Y-32712914D01*
X154180000Y-32712914D02*
X154322857Y-32903390D01*
X154941905Y-32474819D02*
X154941905Y-32712914D01*
X154703810Y-32617676D02*
X154941905Y-32712914D01*
X154941905Y-32712914D02*
X155180000Y-32617676D01*
X154799048Y-32903390D02*
X154941905Y-32712914D01*
X154941905Y-32712914D02*
X155084762Y-32903390D01*
X185496666Y-33464819D02*
X185163333Y-32988628D01*
X184925238Y-33464819D02*
X184925238Y-32464819D01*
X184925238Y-32464819D02*
X185306190Y-32464819D01*
X185306190Y-32464819D02*
X185401428Y-32512438D01*
X185401428Y-32512438D02*
X185449047Y-32560057D01*
X185449047Y-32560057D02*
X185496666Y-32655295D01*
X185496666Y-32655295D02*
X185496666Y-32798152D01*
X185496666Y-32798152D02*
X185449047Y-32893390D01*
X185449047Y-32893390D02*
X185401428Y-32941009D01*
X185401428Y-32941009D02*
X185306190Y-32988628D01*
X185306190Y-32988628D02*
X184925238Y-32988628D01*
X185925238Y-32941009D02*
X186258571Y-32941009D01*
X186401428Y-33464819D02*
X185925238Y-33464819D01*
X185925238Y-33464819D02*
X185925238Y-32464819D01*
X185925238Y-32464819D02*
X186401428Y-32464819D01*
X187163333Y-32941009D02*
X186830000Y-32941009D01*
X186830000Y-33464819D02*
X186830000Y-32464819D01*
X186830000Y-32464819D02*
X187306190Y-32464819D01*
X187830000Y-32464819D02*
X187830000Y-32702914D01*
X187591905Y-32607676D02*
X187830000Y-32702914D01*
X187830000Y-32702914D02*
X188068095Y-32607676D01*
X187687143Y-32893390D02*
X187830000Y-32702914D01*
X187830000Y-32702914D02*
X187972857Y-32893390D01*
X188591905Y-32464819D02*
X188591905Y-32702914D01*
X188353810Y-32607676D02*
X188591905Y-32702914D01*
X188591905Y-32702914D02*
X188830000Y-32607676D01*
X188449048Y-32893390D02*
X188591905Y-32702914D01*
X188591905Y-32702914D02*
X188734762Y-32893390D01*
X214626666Y-50294819D02*
X214293333Y-49818628D01*
X214055238Y-50294819D02*
X214055238Y-49294819D01*
X214055238Y-49294819D02*
X214436190Y-49294819D01*
X214436190Y-49294819D02*
X214531428Y-49342438D01*
X214531428Y-49342438D02*
X214579047Y-49390057D01*
X214579047Y-49390057D02*
X214626666Y-49485295D01*
X214626666Y-49485295D02*
X214626666Y-49628152D01*
X214626666Y-49628152D02*
X214579047Y-49723390D01*
X214579047Y-49723390D02*
X214531428Y-49771009D01*
X214531428Y-49771009D02*
X214436190Y-49818628D01*
X214436190Y-49818628D02*
X214055238Y-49818628D01*
X215055238Y-49771009D02*
X215388571Y-49771009D01*
X215531428Y-50294819D02*
X215055238Y-50294819D01*
X215055238Y-50294819D02*
X215055238Y-49294819D01*
X215055238Y-49294819D02*
X215531428Y-49294819D01*
X216293333Y-49771009D02*
X215960000Y-49771009D01*
X215960000Y-50294819D02*
X215960000Y-49294819D01*
X215960000Y-49294819D02*
X216436190Y-49294819D01*
X216960000Y-49294819D02*
X216960000Y-49532914D01*
X216721905Y-49437676D02*
X216960000Y-49532914D01*
X216960000Y-49532914D02*
X217198095Y-49437676D01*
X216817143Y-49723390D02*
X216960000Y-49532914D01*
X216960000Y-49532914D02*
X217102857Y-49723390D01*
X217721905Y-49294819D02*
X217721905Y-49532914D01*
X217483810Y-49437676D02*
X217721905Y-49532914D01*
X217721905Y-49532914D02*
X217960000Y-49437676D01*
X217579048Y-49723390D02*
X217721905Y-49532914D01*
X217721905Y-49532914D02*
X217864762Y-49723390D01*
X224966666Y-63744819D02*
X224633333Y-63268628D01*
X224395238Y-63744819D02*
X224395238Y-62744819D01*
X224395238Y-62744819D02*
X224776190Y-62744819D01*
X224776190Y-62744819D02*
X224871428Y-62792438D01*
X224871428Y-62792438D02*
X224919047Y-62840057D01*
X224919047Y-62840057D02*
X224966666Y-62935295D01*
X224966666Y-62935295D02*
X224966666Y-63078152D01*
X224966666Y-63078152D02*
X224919047Y-63173390D01*
X224919047Y-63173390D02*
X224871428Y-63221009D01*
X224871428Y-63221009D02*
X224776190Y-63268628D01*
X224776190Y-63268628D02*
X224395238Y-63268628D01*
X225395238Y-63221009D02*
X225728571Y-63221009D01*
X225871428Y-63744819D02*
X225395238Y-63744819D01*
X225395238Y-63744819D02*
X225395238Y-62744819D01*
X225395238Y-62744819D02*
X225871428Y-62744819D01*
X226633333Y-63221009D02*
X226300000Y-63221009D01*
X226300000Y-63744819D02*
X226300000Y-62744819D01*
X226300000Y-62744819D02*
X226776190Y-62744819D01*
X227300000Y-62744819D02*
X227300000Y-62982914D01*
X227061905Y-62887676D02*
X227300000Y-62982914D01*
X227300000Y-62982914D02*
X227538095Y-62887676D01*
X227157143Y-63173390D02*
X227300000Y-62982914D01*
X227300000Y-62982914D02*
X227442857Y-63173390D01*
X228061905Y-62744819D02*
X228061905Y-62982914D01*
X227823810Y-62887676D02*
X228061905Y-62982914D01*
X228061905Y-62982914D02*
X228300000Y-62887676D01*
X227919048Y-63173390D02*
X228061905Y-62982914D01*
X228061905Y-62982914D02*
X228204762Y-63173390D01*
X169913333Y-62824819D02*
X169580000Y-62348628D01*
X169341905Y-62824819D02*
X169341905Y-61824819D01*
X169341905Y-61824819D02*
X169722857Y-61824819D01*
X169722857Y-61824819D02*
X169818095Y-61872438D01*
X169818095Y-61872438D02*
X169865714Y-61920057D01*
X169865714Y-61920057D02*
X169913333Y-62015295D01*
X169913333Y-62015295D02*
X169913333Y-62158152D01*
X169913333Y-62158152D02*
X169865714Y-62253390D01*
X169865714Y-62253390D02*
X169818095Y-62301009D01*
X169818095Y-62301009D02*
X169722857Y-62348628D01*
X169722857Y-62348628D02*
X169341905Y-62348628D01*
X170865714Y-62824819D02*
X170294286Y-62824819D01*
X170580000Y-62824819D02*
X170580000Y-61824819D01*
X170580000Y-61824819D02*
X170484762Y-61967676D01*
X170484762Y-61967676D02*
X170389524Y-62062914D01*
X170389524Y-62062914D02*
X170294286Y-62110533D01*
X124238095Y-61254819D02*
X124238095Y-60254819D01*
X124238095Y-60731009D02*
X124809523Y-60731009D01*
X124809523Y-61254819D02*
X124809523Y-60254819D01*
X125238095Y-60350057D02*
X125285714Y-60302438D01*
X125285714Y-60302438D02*
X125380952Y-60254819D01*
X125380952Y-60254819D02*
X125619047Y-60254819D01*
X125619047Y-60254819D02*
X125714285Y-60302438D01*
X125714285Y-60302438D02*
X125761904Y-60350057D01*
X125761904Y-60350057D02*
X125809523Y-60445295D01*
X125809523Y-60445295D02*
X125809523Y-60540533D01*
X125809523Y-60540533D02*
X125761904Y-60683390D01*
X125761904Y-60683390D02*
X125190476Y-61254819D01*
X125190476Y-61254819D02*
X125809523Y-61254819D01*
X214238095Y-61254819D02*
X214238095Y-60254819D01*
X214238095Y-60731009D02*
X214809523Y-60731009D01*
X214809523Y-61254819D02*
X214809523Y-60254819D01*
X215809523Y-61254819D02*
X215238095Y-61254819D01*
X215523809Y-61254819D02*
X215523809Y-60254819D01*
X215523809Y-60254819D02*
X215428571Y-60397676D01*
X215428571Y-60397676D02*
X215333333Y-60492914D01*
X215333333Y-60492914D02*
X215238095Y-60540533D01*
X148238095Y-70254819D02*
X147666667Y-70254819D01*
X147952381Y-70254819D02*
X147952381Y-69254819D01*
X147952381Y-69254819D02*
X147857143Y-69397676D01*
X147857143Y-69397676D02*
X147761905Y-69492914D01*
X147761905Y-69492914D02*
X147666667Y-69540533D01*
X149095238Y-69588152D02*
X149095238Y-70254819D01*
X148857143Y-69207200D02*
X148619048Y-69921485D01*
X148619048Y-69921485D02*
X149238095Y-69921485D01*
X149619048Y-70254819D02*
X149619048Y-69588152D01*
X149619048Y-69254819D02*
X149571429Y-69302438D01*
X149571429Y-69302438D02*
X149619048Y-69350057D01*
X149619048Y-69350057D02*
X149666667Y-69302438D01*
X149666667Y-69302438D02*
X149619048Y-69254819D01*
X149619048Y-69254819D02*
X149619048Y-69350057D01*
X150095238Y-69588152D02*
X150095238Y-70254819D01*
X150095238Y-69683390D02*
X150142857Y-69635771D01*
X150142857Y-69635771D02*
X150238095Y-69588152D01*
X150238095Y-69588152D02*
X150380952Y-69588152D01*
X150380952Y-69588152D02*
X150476190Y-69635771D01*
X150476190Y-69635771D02*
X150523809Y-69731009D01*
X150523809Y-69731009D02*
X150523809Y-70254819D01*
X151428571Y-70207200D02*
X151333333Y-70254819D01*
X151333333Y-70254819D02*
X151142857Y-70254819D01*
X151142857Y-70254819D02*
X151047619Y-70207200D01*
X151047619Y-70207200D02*
X151000000Y-70159580D01*
X151000000Y-70159580D02*
X150952381Y-70064342D01*
X150952381Y-70064342D02*
X150952381Y-69778628D01*
X150952381Y-69778628D02*
X151000000Y-69683390D01*
X151000000Y-69683390D02*
X151047619Y-69635771D01*
X151047619Y-69635771D02*
X151142857Y-69588152D01*
X151142857Y-69588152D02*
X151333333Y-69588152D01*
X151333333Y-69588152D02*
X151428571Y-69635771D01*
X151857143Y-70254819D02*
X151857143Y-69254819D01*
X152285714Y-70254819D02*
X152285714Y-69731009D01*
X152285714Y-69731009D02*
X152238095Y-69635771D01*
X152238095Y-69635771D02*
X152142857Y-69588152D01*
X152142857Y-69588152D02*
X152000000Y-69588152D01*
X152000000Y-69588152D02*
X151904762Y-69635771D01*
X151904762Y-69635771D02*
X151857143Y-69683390D01*
X231456666Y-79424819D02*
X231123333Y-78948628D01*
X230885238Y-79424819D02*
X230885238Y-78424819D01*
X230885238Y-78424819D02*
X231266190Y-78424819D01*
X231266190Y-78424819D02*
X231361428Y-78472438D01*
X231361428Y-78472438D02*
X231409047Y-78520057D01*
X231409047Y-78520057D02*
X231456666Y-78615295D01*
X231456666Y-78615295D02*
X231456666Y-78758152D01*
X231456666Y-78758152D02*
X231409047Y-78853390D01*
X231409047Y-78853390D02*
X231361428Y-78901009D01*
X231361428Y-78901009D02*
X231266190Y-78948628D01*
X231266190Y-78948628D02*
X230885238Y-78948628D01*
X231885238Y-78901009D02*
X232218571Y-78901009D01*
X232361428Y-79424819D02*
X231885238Y-79424819D01*
X231885238Y-79424819D02*
X231885238Y-78424819D01*
X231885238Y-78424819D02*
X232361428Y-78424819D01*
X233123333Y-78901009D02*
X232790000Y-78901009D01*
X232790000Y-79424819D02*
X232790000Y-78424819D01*
X232790000Y-78424819D02*
X233266190Y-78424819D01*
X233790000Y-78424819D02*
X233790000Y-78662914D01*
X233551905Y-78567676D02*
X233790000Y-78662914D01*
X233790000Y-78662914D02*
X234028095Y-78567676D01*
X233647143Y-78853390D02*
X233790000Y-78662914D01*
X233790000Y-78662914D02*
X233932857Y-78853390D01*
X234551905Y-78424819D02*
X234551905Y-78662914D01*
X234313810Y-78567676D02*
X234551905Y-78662914D01*
X234551905Y-78662914D02*
X234790000Y-78567676D01*
X234409048Y-78853390D02*
X234551905Y-78662914D01*
X234551905Y-78662914D02*
X234694762Y-78853390D01*
X136166666Y-39964819D02*
X135833333Y-39488628D01*
X135595238Y-39964819D02*
X135595238Y-38964819D01*
X135595238Y-38964819D02*
X135976190Y-38964819D01*
X135976190Y-38964819D02*
X136071428Y-39012438D01*
X136071428Y-39012438D02*
X136119047Y-39060057D01*
X136119047Y-39060057D02*
X136166666Y-39155295D01*
X136166666Y-39155295D02*
X136166666Y-39298152D01*
X136166666Y-39298152D02*
X136119047Y-39393390D01*
X136119047Y-39393390D02*
X136071428Y-39441009D01*
X136071428Y-39441009D02*
X135976190Y-39488628D01*
X135976190Y-39488628D02*
X135595238Y-39488628D01*
X136595238Y-39441009D02*
X136928571Y-39441009D01*
X137071428Y-39964819D02*
X136595238Y-39964819D01*
X136595238Y-39964819D02*
X136595238Y-38964819D01*
X136595238Y-38964819D02*
X137071428Y-38964819D01*
X137833333Y-39441009D02*
X137500000Y-39441009D01*
X137500000Y-39964819D02*
X137500000Y-38964819D01*
X137500000Y-38964819D02*
X137976190Y-38964819D01*
X138500000Y-38964819D02*
X138500000Y-39202914D01*
X138261905Y-39107676D02*
X138500000Y-39202914D01*
X138500000Y-39202914D02*
X138738095Y-39107676D01*
X138357143Y-39393390D02*
X138500000Y-39202914D01*
X138500000Y-39202914D02*
X138642857Y-39393390D01*
X139261905Y-38964819D02*
X139261905Y-39202914D01*
X139023810Y-39107676D02*
X139261905Y-39202914D01*
X139261905Y-39202914D02*
X139500000Y-39107676D01*
X139119048Y-39393390D02*
X139261905Y-39202914D01*
X139261905Y-39202914D02*
X139404762Y-39393390D01*
X122706666Y-50294819D02*
X122373333Y-49818628D01*
X122135238Y-50294819D02*
X122135238Y-49294819D01*
X122135238Y-49294819D02*
X122516190Y-49294819D01*
X122516190Y-49294819D02*
X122611428Y-49342438D01*
X122611428Y-49342438D02*
X122659047Y-49390057D01*
X122659047Y-49390057D02*
X122706666Y-49485295D01*
X122706666Y-49485295D02*
X122706666Y-49628152D01*
X122706666Y-49628152D02*
X122659047Y-49723390D01*
X122659047Y-49723390D02*
X122611428Y-49771009D01*
X122611428Y-49771009D02*
X122516190Y-49818628D01*
X122516190Y-49818628D02*
X122135238Y-49818628D01*
X123135238Y-49771009D02*
X123468571Y-49771009D01*
X123611428Y-50294819D02*
X123135238Y-50294819D01*
X123135238Y-50294819D02*
X123135238Y-49294819D01*
X123135238Y-49294819D02*
X123611428Y-49294819D01*
X124373333Y-49771009D02*
X124040000Y-49771009D01*
X124040000Y-50294819D02*
X124040000Y-49294819D01*
X124040000Y-49294819D02*
X124516190Y-49294819D01*
X125040000Y-49294819D02*
X125040000Y-49532914D01*
X124801905Y-49437676D02*
X125040000Y-49532914D01*
X125040000Y-49532914D02*
X125278095Y-49437676D01*
X124897143Y-49723390D02*
X125040000Y-49532914D01*
X125040000Y-49532914D02*
X125182857Y-49723390D01*
X125801905Y-49294819D02*
X125801905Y-49532914D01*
X125563810Y-49437676D02*
X125801905Y-49532914D01*
X125801905Y-49532914D02*
X126040000Y-49437676D01*
X125659048Y-49723390D02*
X125801905Y-49532914D01*
X125801905Y-49532914D02*
X125944762Y-49723390D01*
X112376666Y-63754819D02*
X112043333Y-63278628D01*
X111805238Y-63754819D02*
X111805238Y-62754819D01*
X111805238Y-62754819D02*
X112186190Y-62754819D01*
X112186190Y-62754819D02*
X112281428Y-62802438D01*
X112281428Y-62802438D02*
X112329047Y-62850057D01*
X112329047Y-62850057D02*
X112376666Y-62945295D01*
X112376666Y-62945295D02*
X112376666Y-63088152D01*
X112376666Y-63088152D02*
X112329047Y-63183390D01*
X112329047Y-63183390D02*
X112281428Y-63231009D01*
X112281428Y-63231009D02*
X112186190Y-63278628D01*
X112186190Y-63278628D02*
X111805238Y-63278628D01*
X112805238Y-63231009D02*
X113138571Y-63231009D01*
X113281428Y-63754819D02*
X112805238Y-63754819D01*
X112805238Y-63754819D02*
X112805238Y-62754819D01*
X112805238Y-62754819D02*
X113281428Y-62754819D01*
X114043333Y-63231009D02*
X113710000Y-63231009D01*
X113710000Y-63754819D02*
X113710000Y-62754819D01*
X113710000Y-62754819D02*
X114186190Y-62754819D01*
X114710000Y-62754819D02*
X114710000Y-62992914D01*
X114471905Y-62897676D02*
X114710000Y-62992914D01*
X114710000Y-62992914D02*
X114948095Y-62897676D01*
X114567143Y-63183390D02*
X114710000Y-62992914D01*
X114710000Y-62992914D02*
X114852857Y-63183390D01*
X115471905Y-62754819D02*
X115471905Y-62992914D01*
X115233810Y-62897676D02*
X115471905Y-62992914D01*
X115471905Y-62992914D02*
X115710000Y-62897676D01*
X115329048Y-63183390D02*
X115471905Y-62992914D01*
X115471905Y-62992914D02*
X115614762Y-63183390D01*
X105886666Y-79434819D02*
X105553333Y-78958628D01*
X105315238Y-79434819D02*
X105315238Y-78434819D01*
X105315238Y-78434819D02*
X105696190Y-78434819D01*
X105696190Y-78434819D02*
X105791428Y-78482438D01*
X105791428Y-78482438D02*
X105839047Y-78530057D01*
X105839047Y-78530057D02*
X105886666Y-78625295D01*
X105886666Y-78625295D02*
X105886666Y-78768152D01*
X105886666Y-78768152D02*
X105839047Y-78863390D01*
X105839047Y-78863390D02*
X105791428Y-78911009D01*
X105791428Y-78911009D02*
X105696190Y-78958628D01*
X105696190Y-78958628D02*
X105315238Y-78958628D01*
X106315238Y-78911009D02*
X106648571Y-78911009D01*
X106791428Y-79434819D02*
X106315238Y-79434819D01*
X106315238Y-79434819D02*
X106315238Y-78434819D01*
X106315238Y-78434819D02*
X106791428Y-78434819D01*
X107553333Y-78911009D02*
X107220000Y-78911009D01*
X107220000Y-79434819D02*
X107220000Y-78434819D01*
X107220000Y-78434819D02*
X107696190Y-78434819D01*
X108220000Y-78434819D02*
X108220000Y-78672914D01*
X107981905Y-78577676D02*
X108220000Y-78672914D01*
X108220000Y-78672914D02*
X108458095Y-78577676D01*
X108077143Y-78863390D02*
X108220000Y-78672914D01*
X108220000Y-78672914D02*
X108362857Y-78863390D01*
X108981905Y-78434819D02*
X108981905Y-78672914D01*
X108743810Y-78577676D02*
X108981905Y-78672914D01*
X108981905Y-78672914D02*
X109220000Y-78577676D01*
X108839048Y-78863390D02*
X108981905Y-78672914D01*
X108981905Y-78672914D02*
X109124762Y-78863390D01*
D11*
%TO.C,R1*%
X174120000Y-60000000D02*
X173350000Y-60000000D01*
X173350000Y-61370000D02*
X173350000Y-58630000D01*
X173350000Y-58630000D02*
X166810000Y-58630000D01*
X166810000Y-61370000D02*
X173350000Y-61370000D01*
X166810000Y-58630000D02*
X166810000Y-61370000D01*
X166040000Y-60000000D02*
X166810000Y-60000000D01*
%TD*%
M02*
