0
SECTION
2
HEADER
9
$INSUNITS
70
4
9
$ACADVER
1
AC1014
9
$HANDSEED
5
FFFF
0
ENDSEC
0
SECTION
2
TABLES
0
TABLE
2
VPORT
5
8
100
AcDbSymbolTable
0
ENDTAB
0
TABLE
2
LTYPE
5
5
100
AcDbSymbolTable
0
LTYPE
5
14
100
AcDbSymbolTableRecord
100
AcDbLinetypeTableRecord
2
BYBLOCK
70
0
0
LTYPE
5
15
100
AcDbSymbolTableRecord
100
AcDbLinetypeTableRecord
2
BYLAYER
70
0
0
LTYPE
5
16
100
AcDbSymbolTableRecord
100
AcDbLinetypeTableRecord
2
DASHED
70
0
3
Dashed __ __ __ __ __ __ __ __ __ __ __ __ __ _
72
65
73
2
40
0.75
49
0.5
74
0
49
-0.25
74
0
0
ENDTAB
0
TABLE
2
LAYER
5
2
100
AcDbSymbolTable
70
3
0
LAYER
5
50
100
AcDbSymbolTableRecord
100
AcDbLayerTableRecord
2
1
70
0
62
7
6
DASHED
0
LAYER
5
51
100
AcDbSymbolTableRecord
100
AcDbLayerTableRecord
2
0
70
0
62
7
6
CONTINUOUS
0
ENDTAB
0
TABLE
2
STYLE
5
3
100
AcDbSymbolTable
70
1
0
STYLE
5
11
100
AcDbSymbolTableRecord
100
AcDbTextStyleTableRecord
2
STANDARD
70
0
0
ENDTAB
0
TABLE
2
VIEW
5
6
100
AcDbSymbolTable
70
0
0
ENDTAB
0
TABLE
2
UCS
5
7
100
AcDbSymbolTable
70
0
0
ENDTAB
0
TABLE
2
APPID
5
9
100
AcDbSymbolTable
70
2
0
APPID
5
12
100
AcDbSymbolTableRecord
100
AcDbRegAppTableRecord
2
ACAD
70
0
0
ENDTAB
0
TABLE
2
DIMSTYLE
5
A
100
AcDbSymbolTable
70
1
0
ENDTAB
0
TABLE
2
BLOCK_RECORD
5
1
100
AcDbSymbolTable
70
1
0
BLOCK_RECORD
5
1F
100
AcDbSymbolTableRecord
100
AcDbBlockTableRecord
2
*MODEL_SPACE
0
BLOCK_RECORD
5
1B
100
AcDbSymbolTableRecord
100
AcDbBlockTableRecord
2
*PAPER_SPACE
0
ENDTAB
0
ENDSEC
0
SECTION
2
BLOCKS
0
BLOCK
5
20
100
AcDbEntity
100
AcDbBlockBegin
2
*MODEL_SPACE
0
ENDBLK
5
21
100
AcDbEntity
100
AcDbBlockEnd
0
BLOCK
5
1C
100
AcDbEntity
100
AcDbBlockBegin
2
*PAPER_SPACE
0
ENDBLK
5
1D
100
AcDbEntity
100
AcDbBlockEnd
0
ENDSEC
0
SECTION
2
ENTITIES
0
POINT
5
100
100
AcDbEntity
8
0
100
AcDbPoint
10
0
20
0
30
0
0
POINT
5
101
100
AcDbEntity
8
0
100
AcDbPoint
10
0
20
0
30
0
0
LWPOLYLINE
5
102
100
AcDbEntity
8
0
100
AcDbPolyline
90
263
70
1
43
0.0
10
-2.925726
20
-69.938830999999993
10
-1.254181
20
-69.988764000000003
10
0.41808000000000012
20
-69.998750999999999
10
2.090103
20
-69.968789000000001
10
3.7609320000000004
20
-69.898893999999999
10
5.4296150000000001
20
-69.789106000000004
10
7.0952000000000002
20
-69.639487000000003
10
8.7567350000000008
20
-69.450123000000005
10
10.413271999999999
20
-69.221121999999994
10
12.063866000000001
20
-68.952615000000009
10
13.707575
20
-68.644755000000004
10
15.343461000000001
20
-68.297718000000003
10
16.970589
20
-67.911700999999994
10
18.588032999999999
20
-67.486925000000014
10
20.194866999999999
20
-67.023633000000004
10
21.790175999999999
20
-66.522087999999997
10
23.373048000000001
20
-65.982578000000004
10
24.942581000000001
20
-65.405410000000018
10
26.497879000000001
20
-64.790913000000003
10
28.038053999999999
20
-64.139437999999998
10
29.562226000000003
20
-63.451358000000006
10
31.069527000000004
20
-62.727064000000006
10
32.559094999999999
20
-61.966970000000003
10
34.030081000000003
20
-61.171509999999998
10
35.481645
20
-60.341137000000003
10
36.912959000000001
20
-59.476326999999998
10
38.323205999999999
20
-58.577571000000006
10
39.711581000000002
20
-57.645384
10
41.077291000000002
20
-56.680298000000001
10
42.419558000000002
20
-55.682862
10
43.737614000000001
20
-54.653647000000007
10
45.030707999999997
20
-53.593238999999997
10
46.298102000000007
20
-52.502245000000009
10
47.539073000000009
20
-51.38128600000001
10
48.752912000000002
20
-50.231002000000004
10
49.938926000000009
20
-49.052050999999999
10
51.096439000000004
20
-47.845104000000006
10
52.224789999999999
20
-46.610849999999999
10
53.323334000000003
20
-45.349995000000007
10
54.391446000000002
20
-44.063257
10
55.428515000000004
20
-42.751371000000006
10
56.43395000000001
20
-41.415086000000009
10
57.407176
20
-40.055164000000005
10
58.347638000000011
20
-38.672381000000001
10
59.254800000000003
20
-37.267527999999999
10
60.128143999999999
20
-35.841403999999997
10
60.967171
20
-34.394826000000002
10
61.771403000000007
20
-32.928617000000003
10
62.540380000000006
20
-31.443615000000005
10
63.273663000000006
20
-29.940667000000005
10
63.970835000000008
20
-28.420631000000007
10
64.631496999999996
20
-26.884374999999999
10
65.255272000000005
20
-25.332775000000005
10
65.841803999999996
20
-23.766717
10
66.390758000000005
20
-22.187094999999999
10
66.901821999999996
20
-20.594809999999999
10
67.374702999999997
20
-18.990772
10
67.809130999999994
20
-17.375894000000002
10
68.204858999999999
20
-15.751100000000005
10
68.561661000000001
20
-14.117316000000004
10
68.879333000000003
20
-12.475474999999996
10
69.157694000000006
20
-10.826513999999996
10
69.396584000000004
20
-9.1713739999999966
10
69.595867999999996
20
-7.511000000000001
10
69.755432000000013
20
-5.8463390000000004
10
69.875185000000002
20
-4.1783419999999971
10
69.955058000000008
20
-2.5079589999999996
10
69.995006000000018
20
-0.83614500000000369
10
69.995006000000018
20
0.83614500000000369
10
69.955058000000008
20
2.5079589999999996
10
69.875185000000002
20
4.1783419999999971
10
69.755432000000013
20
5.8463390000000004
10
69.595867999999996
20
7.511000000000001
10
69.396584000000004
20
9.1713739999999966
10
69.157694000000006
20
10.826513999999996
10
68.879333000000003
20
12.475474999999996
10
68.561661000000001
20
14.117315999999995
10
68.204858999999999
20
15.751100000000005
10
67.809130999999994
20
17.375894000000009
10
67.374702999999997
20
18.990772000000007
10
66.901821999999996
20
20.594809999999999
10
66.390758000000005
20
22.187094999999992
10
65.841803999999996
20
23.766716999999993
10
65.255272000000005
20
25.332775000000005
10
64.631496999999996
20
26.884374999999991
10
63.970835000000008
20
28.420631000000007
10
63.273663000000006
20
29.940667000000012
10
62.540380000000006
20
31.443615000000005
10
61.771403000000007
20
32.928616999999996
10
60.967171
20
34.394825999999995
10
60.128143999999999
20
35.84140399999999
10
59.254800000000003
20
37.267527999999999
10
58.347638000000011
20
38.672381000000001
10
57.407176
20
40.055164000000012
10
56.43395000000001
20
41.415086000000016
10
55.428515000000004
20
42.751371000000006
10
54.391446000000002
20
44.063257
10
53.323334000000003
20
45.349995000000014
10
52.224789999999999
20
46.610849999999999
10
51.096439000000004
20
47.845104000000006
10
49.938926000000009
20
49.052050999999999
10
48.752912000000002
20
50.231002000000004
10
47.539073000000009
20
51.381286000000017
10
46.298102000000007
20
52.502245000000016
10
45.030707999999997
20
53.593238999999997
10
43.737614000000001
20
54.653647000000007
10
42.419558000000002
20
55.682861999999993
10
41.077291000000002
20
56.680297999999993
10
39.711581000000002
20
57.645383999999993
10
38.323205999999999
20
58.577571000000006
10
36.912959000000001
20
59.476326999999998
10
35.481645
20
60.341137000000003
10
34.030081000000003
20
61.171509999999998
10
32.559094999999999
20
61.966970000000003
10
31.069527000000004
20
62.727064000000006
10
29.562226000000003
20
63.451358000000013
10
28.038053999999999
20
64.139437999999998
10
26.497879000000001
20
64.790913000000003
10
24.942581000000001
20
65.405410000000018
10
23.373048000000001
20
65.982578000000004
10
21.790175999999999
20
66.522087999999997
10
20.194866999999999
20
67.023633000000018
10
18.588032999999999
20
67.486925000000014
10
16.970589
20
67.911700999999994
10
15.343461000000001
20
68.297718000000003
10
13.707575
20
68.644755000000004
10
12.063866000000001
20
68.952615000000009
10
10.413271999999999
20
69.221122000000008
10
8.7567350000000008
20
69.450123000000019
10
7.0952000000000002
20
69.639487000000003
10
5.4296150000000001
20
69.789106000000004
10
3.7609320000000004
20
69.898893999999984
10
2.090103
20
69.968789000000001
10
0.41808000000000012
20
69.998750999999999
10
-1.254181
20
69.988764000000003
10
-2.925726
20
69.938830999999993
10
-4.5956020000000013
20
69.848983000000004
10
-6.2628539999999999
20
69.719270000000009
10
-7.9265330000000001
20
69.549767000000003
10
-9.5856870000000001
20
69.340569999999985
10
-11.239371
20
69.091798000000011
10
-12.88664
20
68.803594000000004
10
-14.526554000000003
20
68.476122000000004
10
-16.158177999999999
20
68.109567999999996
10
-17.780578999999999
20
67.704143000000002
10
-19.392833
20
67.260076999999995
10
-20.994019000000002
20
66.777625
10
-22.583223
20
66.25706000000001
10
-24.159538999999999
20
65.698681000000008
10
-25.722065000000001
20
65.102806000000015
10
-27.269912000000005
20
64.469774999999998
10
-28.802195000000005
20
63.79995000000001
10
-30.318038999999999
20
63.093712000000011
10
-31.816580999999999
20
62.35146499999999
10
-33.296964000000003
20
61.573632000000003
10
-34.758343000000011
20
60.760658000000006
10
-36.199885000000002
20
59.91300600000001
10
-37.620767000000001
20
59.031160999999997
10
-39.020177000000004
20
58.115623999999997
10
-40.397317999999999
20
57.166920000000005
10
-41.75140300000001
20
56.18558800000001
10
-43.081659000000002
20
55.172190999999998
10
-44.387327999999997
20
54.127305000000007
10
-45.667663000000005
20
53.051527000000007
10
-46.921935000000005
20
51.945471000000012
10
-48.149428000000007
20
50.809768999999996
10
-49.349440000000008
20
49.645068000000009
10
-50.521287000000008
20
48.45203399999999
10
-51.664299999999997
20
47.231346999999992
10
-52.777827000000002
20
45.983702999999991
10
-53.861233000000006
20
44.709816000000004
10
-54.913898000000003
20
43.410411000000018
10
-55.935223000000001
20
42.086231000000005
10
-56.924624000000001
20
40.738030999999992
10
-57.881537000000009
20
39.366580999999989
10
-58.805415000000004
20
37.972663999999995
10
-59.695731000000009
20
36.557074000000007
10
-60.551978000000005
20
35.120621
10
-61.373666
20
33.664123000000004
10
-62.160325999999998
20
32.188412
10
-62.91151
20
30.694330000000001
10
-63.626789000000002
20
29.182731000000004
10
-64.305753999999993
20
27.654475999999999
10
-64.948018000000019
20
26.110438000000009
10
-65.553214999999994
20
24.551498000000009
10
-66.120998
20
22.978546000000009
10
-66.651044999999996
20
21.392479000000009
10
-67.143052999999995
20
19.79420300000001
10
-67.596740000000011
20
18.184629999999995
10
-68.011848000000001
20
16.564679000000009
10
-68.388138999999995
20
14.935273999999996
10
-68.725399999999993
20
13.297345000000007
10
-69.023437999999999
20
11.651825999999996
10
-69.282082000000003
20
9.9996580000000002
10
-69.501185000000007
20
8.341782000000002
10
-69.680621000000002
20
6.6791459999999958
10
-69.82029
20
5.0126980000000021
10
-69.920109999999994
20
3.3433889999999966
10
-69.980024999999998
20
1.6721719999999962
10
-70
20
0
10
-69.980024999999998
20
-1.6721719999999962
10
-69.920109999999994
20
-3.3433889999999966
10
-69.82029
20
-5.0126980000000021
10
-69.680621000000002
20
-6.6791459999999958
10
-69.501185000000007
20
-8.341782000000002
10
-69.282082000000003
20
-9.9996580000000002
10
-69.023437999999999
20
-11.651825999999996
10
-68.725399999999993
20
-13.297344999999998
10
-68.388138999999995
20
-14.935273999999996
10
-68.011848000000001
20
-16.564678999999998
10
-67.596740000000011
20
-18.184629999999995
10
-67.143052999999995
20
-19.794203000000003
10
-66.651044999999996
20
-21.392479000000009
10
-66.120998
20
-22.978546000000009
10
-65.553214999999994
20
-24.551498000000002
10
-64.948018000000019
20
-26.110438000000002
10
-64.305753999999993
20
-27.654475999999999
10
-63.626789000000002
20
-29.182731000000004
10
-62.91151
20
-30.694330000000001
10
-62.160325999999998
20
-32.188412
10
-61.373666
20
-33.664122999999996
10
-60.551978000000005
20
-35.120621
10
-59.695731000000009
20
-36.557074
10
-58.805415000000004
20
-37.972664000000002
10
-57.881537000000009
20
-39.366580999999996
10
-56.924624000000001
20
-40.738030999999999
10
-55.935223000000001
20
-42.086230999999998
10
-54.913898000000003
20
-43.410411000000011
10
-53.861233000000006
20
-44.709816000000004
10
-52.777827000000002
20
-45.983702999999998
10
-51.664299999999997
20
-47.231347
10
-50.521287000000008
20
-48.452033999999998
10
-49.349440000000008
20
-49.645068000000009
10
-48.149428000000007
20
-50.809769000000003
10
-46.921935000000005
20
-51.945471000000005
10
-45.667663000000005
20
-53.051527000000007
10
-44.387327999999997
20
-54.127305000000007
10
-43.081659000000002
20
-55.172190999999998
10
-41.75140300000001
20
-56.18558800000001
10
-40.397317999999999
20
-57.166920000000005
10
-39.020177000000004
20
-58.115623999999997
10
-37.620767000000001
20
-59.031160999999997
10
-36.199885000000002
20
-59.91300600000001
10
-34.758343000000011
20
-60.760658000000006
10
-33.296964000000003
20
-61.573632000000003
10
-31.816580999999999
20
-62.351464999999997
10
-30.318038999999999
20
-63.093712000000004
10
-28.802195000000005
20
-63.79995000000001
10
-27.269912000000005
20
-64.469774999999998
10
-25.722065000000001
20
-65.102806000000001
10
-24.159538999999999
20
-65.698680999999993
10
-22.583223
20
-66.257059999999996
10
-20.994019000000002
20
-66.777625
10
-19.392833
20
-67.260076999999995
10
-17.780578999999999
20
-67.704143000000002
10
-16.158177999999999
20
-68.109567999999996
10
-14.526554000000003
20
-68.476122000000004
10
-12.88664
20
-68.803594000000004
10
-11.239371
20
-69.091798000000011
10
-9.5856870000000001
20
-69.34057
10
-7.9265330000000001
20
-69.549767000000003
10
-6.2628539999999999
20
-69.719269999999995
10
-4.5956020000000013
20
-69.848983000000004
0
CIRCLE
5
103
100
AcDbEntity
8
0
100
AcDbCircle
10
-45.96194100000001
20
45.96194100000001
30
0
40
1.6000000000000003
210
0
220
-0
230
1
0
CIRCLE
5
104
100
AcDbEntity
8
0
100
AcDbCircle
10
-16.823238
20
62.785179000000007
30
0
40
1.6000000000000003
210
0
220
-0
230
1
0
CIRCLE
5
105
100
AcDbEntity
8
0
100
AcDbCircle
10
-32.5
20
56.291651000000009
30
0
40
1.6000000000000003
210
0
220
-0
230
1
0
CIRCLE
5
106
100
AcDbEntity
8
0
100
AcDbCircle
10
-56.291651000000009
20
32.5
30
0
40
1.6000000000000003
210
0
220
-0
230
1
0
CIRCLE
5
107
100
AcDbEntity
8
0
100
AcDbCircle
10
-62.785179000000007
20
16.823238
30
0
40
1.6000000000000003
210
0
220
-0
230
1
0
CIRCLE
5
108
100
AcDbEntity
8
0
100
AcDbCircle
10
0
20
65
30
0
40
1.6000000000000003
210
0
220
-0
230
1
0
CIRCLE
5
109
100
AcDbEntity
8
0
100
AcDbCircle
10
16.823238
20
62.785179000000007
30
0
40
1.6000000000000003
210
0
220
-0
230
1
0
CIRCLE
5
110
100
AcDbEntity
8
0
100
AcDbCircle
10
32.5
20
56.291651000000009
30
0
40
1.6000000000000003
210
0
220
-0
230
1
0
CIRCLE
5
111
100
AcDbEntity
8
0
100
AcDbCircle
10
45.96194100000001
20
45.96194100000001
30
0
40
1.6000000000000003
210
0
220
-0
230
1
0
CIRCLE
5
112
100
AcDbEntity
8
0
100
AcDbCircle
10
56.291651000000009
20
32.5
30
0
40
1.6000000000000003
210
0
220
-0
230
1
0
CIRCLE
5
113
100
AcDbEntity
8
0
100
AcDbCircle
10
62.785179000000007
20
16.823238
30
0
40
1.6000000000000003
210
0
220
-0
230
1
0
CIRCLE
5
114
100
AcDbEntity
8
0
100
AcDbCircle
10
-65
20
0
30
0
40
1.6000000000000003
210
0
220
-0
230
1
0
CIRCLE
5
115
100
AcDbEntity
8
0
100
AcDbCircle
10
-62.785179000000007
20
-16.823238
30
0
40
1.6000000000000003
210
0
220
-0
230
1
0
CIRCLE
5
116
100
AcDbEntity
8
0
100
AcDbCircle
10
-56.291651000000009
20
-32.5
30
0
40
1.6000000000000003
210
0
220
-0
230
1
0
CIRCLE
5
117
100
AcDbEntity
8
0
100
AcDbCircle
10
-45.96194100000001
20
-45.96194100000001
30
0
40
1.6000000000000003
210
0
220
-0
230
1
0
CIRCLE
5
118
100
AcDbEntity
8
0
100
AcDbCircle
10
-32.5
20
-56.291651000000009
30
0
40
1.6000000000000003
210
0
220
-0
230
1
0
CIRCLE
5
119
100
AcDbEntity
8
0
100
AcDbCircle
10
-16.823238
20
-62.785179000000007
30
0
40
1.6000000000000003
210
0
220
-0
230
1
0
CIRCLE
5
120
100
AcDbEntity
8
0
100
AcDbCircle
10
65
20
0
30
0
40
1.6000000000000003
210
0
220
-0
230
1
0
CIRCLE
5
121
100
AcDbEntity
8
0
100
AcDbCircle
10
62.785179000000007
20
-16.823238
30
0
40
1.6000000000000003
210
0
220
-0
230
1
0
CIRCLE
5
122
100
AcDbEntity
8
0
100
AcDbCircle
10
56.291651000000009
20
-32.5
30
0
40
1.6000000000000003
210
0
220
-0
230
1
0
CIRCLE
5
123
100
AcDbEntity
8
0
100
AcDbCircle
10
0
20
-65
30
0
40
1.6000000000000003
210
0
220
-0
230
1
0
CIRCLE
5
124
100
AcDbEntity
8
0
100
AcDbCircle
10
32.5
20
-56.291651000000009
30
0
40
1.6000000000000003
210
0
220
-0
230
1
0
CIRCLE
5
125
100
AcDbEntity
8
0
100
AcDbCircle
10
16.823238
20
-62.785179000000007
30
0
40
1.6000000000000003
210
0
220
-0
230
1
0
CIRCLE
5
126
100
AcDbEntity
8
0
100
AcDbCircle
10
45.96194100000001
20
-45.96194100000001
30
0
40
1.6000000000000003
210
0
220
-0
230
1
0
CIRCLE
5
127
100
AcDbEntity
8
0
100
AcDbCircle
10
25
20
-25
30
0
40
2.1500000000000017
210
0
220
0
230
1
0
CIRCLE
5
128
100
AcDbEntity
8
0
100
AcDbCircle
10
-25
20
-25
30
0
40
2.1500000000000017
210
0
220
0
230
1
0
CIRCLE
5
129
100
AcDbEntity
8
0
100
AcDbCircle
10
25
20
25
30
0
40
2.1500000000000017
210
0
220
0
230
1
0
CIRCLE
5
130
100
AcDbEntity
8
0
100
AcDbCircle
10
-25
20
25
30
0
40
2.1500000000000017
210
0
220
0
230
1
0
ENDSEC
0
SECTION
2
OBJECTS
0
DICTIONARY
5
C
100
AcDbDictionary
3
ACAD_GROUP
350
D
3
ACAD_MLINESTYLE
350
17
0
DICTIONARY
5
D
100
AcDbDictionary
0
DICTIONARY
5
1A
330
C
100
AcDbDictionary
0
DICTIONARY
5
17
100
AcDbDictionary
0
ENDSEC
0
EOF
